<?xml version="1.0" standalone="no"?>
<!DOCTYPE svg PUBLIC "-//W3C//DTD SVG 20010904//EN"
 "http://www.w3.org/TR/2001/REC-SVG-20010904/DTD/svg10.dtd">
<svg version="1.0" xmlns="http://www.w3.org/2000/svg"
 width="300.000000pt" height="300.000000pt" viewBox="0 0 300.000000 300.000000"
 preserveAspectRatio="xMidYMid meet">
<metadata>
Created by potrace 1.14, written by Peter Selinger 2001-2017
</metadata>
<g transform="translate(0.000000,300.000000) scale(0.100000,-0.100000)"
fill="#000000" stroke="none">
<path d="M30 1998 c17 -24 37 -52 45 -62 14 -18 23 -18 377 -2 200 9 386 19
413 22 37 4 47 2 39 -6 -7 -7 -163 -24 -388 -43 -207 -17 -376 -36 -376 -40 0
-5 21 -31 48 -58 l47 -49 314 55 c172 31 318 54 325 52 24 -8 -39 -27 -307
-93 l-278 -68 55 -55 55 -54 193 73 c106 40 214 81 241 91 36 14 47 16 47 6 0
-8 -95 -60 -211 -116 -116 -57 -207 -106 -202 -110 48 -42 115 -81 125 -75 7
5 82 57 167 117 84 59 156 105 160 102 3 -4 -57 -67 -134 -140 -77 -73 -138
-135 -135 -138 10 -9 89 -47 98 -47 7 0 169 184 219 249 2 2 5 2 8 -1 3 -3
-31 -65 -75 -138 -45 -73 -79 -134 -77 -137 3 -2 29 -7 58 -10 l54 -5 65 131
c35 71 66 128 68 126 2 -2 -13 -54 -33 -115 -20 -61 -35 -114 -32 -117 3 -3
28 8 54 24 47 29 48 31 73 124 l25 94 3 -69 3 -69 39 38 c35 34 40 45 41 85 0
25 3 38 6 30 2 -8 7 -22 9 -30 6 -18 53 36 54 63 0 9 5 17 10 17 6 0 10 -3 10
-7 0 -16 -59 -109 -89 -141 -17 -19 -29 -37 -27 -40 2 -4 25 -22 50 -40 l46
-33 10 23 c37 87 110 281 110 291 0 7 -15 28 -33 45 l-34 33 -67 -32 c-126
-59 -241 -49 -281 25 -37 68 0 154 91 219 24 17 44 34 44 39 0 4 -259 8 -576
8 l-575 0 31 -42z"/>
<path d="M1850 2032 c0 -5 20 -22 44 -39 91 -65 128 -151 91 -219 -40 -74
-155 -84 -281 -25 l-67 32 -34 -33 c-28 -26 -33 -38 -29 -60 10 -49 -1 -30
-34 60 -30 79 -38 91 -83 125 -51 37 -80 41 -100 13 -6 -7 -7 -6 -5 4 3 8 28
21 56 30 28 8 54 18 58 23 4 4 -47 7 -114 7 -123 0 -127 -1 -123 -37 1 -6 -12
-14 -29 -18 -41 -9 -44 -18 -21 -67 18 -39 20 -41 26 -21 5 15 20 27 46 35
l39 11 -22 26 c-13 14 -3 8 22 -13 45 -37 45 -37 52 -14 6 21 7 21 5 -4 -1
-20 9 -39 43 -73 24 -25 47 -45 51 -45 4 0 15 23 24 51 9 28 19 48 21 46 3 -3
-34 -109 -83 -236 l-87 -231 39 -40 39 -40 -24 -56 c-17 -42 -20 -61 -13 -73
16 -25 26 -17 50 41 28 67 30 51 2 -21 -20 -54 -20 -54 -1 -74 19 -19 20 -19
36 24 9 24 14 33 11 19 -16 -73 -15 -75 14 -110 l30 -35 36 35 35 36 -16 53
c-8 29 -13 55 -11 57 3 3 7 -6 11 -20 3 -14 11 -37 16 -51 l10 -25 20 20 c20
20 20 20 0 72 -26 68 -19 73 9 6 20 -48 23 -51 38 -35 15 15 15 20 -9 76 -26
60 -26 60 -6 78 11 10 29 30 39 44 18 26 18 27 -27 139 -25 62 -43 114 -41
116 2 2 17 -29 32 -68 16 -40 35 -88 42 -106 l14 -33 45 33 c25 18 48 36 50
40 2 3 -10 21 -27 40 -30 32 -89 125 -89 141 0 4 5 7 10 7 6 0 10 -8 10 -17 1
-27 48 -81 54 -63 2 8 7 22 9 30 3 8 6 -5 6 -30 1 -40 6 -51 41 -85 l39 -38 3
69 3 69 25 -94 c25 -93 26 -95 73 -124 26 -16 51 -27 54 -24 3 3 -12 56 -32
117 -20 61 -35 113 -33 115 2 2 33 -55 68 -126 l65 -131 54 5 c29 3 55 8 58
10 2 3 -32 64 -77 137 -44 73 -78 135 -75 138 3 3 6 3 8 1 50 -65 212 -249
219 -249 9 0 88 38 98 47 3 3 -58 65 -135 138 -77 73 -137 136 -134 140 4 3
76 -43 160 -102 85 -60 160 -112 167 -117 10 -6 77 33 125 75 5 4 -86 53 -202
110 -116 56 -211 108 -211 116 0 10 11 8 48 -6 26 -10 134 -51 240 -91 l193
-73 55 54 55 55 -278 68 c-268 66 -331 85 -307 93 7 2 153 -21 325 -52 l314
-55 48 49 c26 27 47 53 47 58 0 4 -169 23 -376 40 -225 19 -381 36 -388 43 -8
8 2 10 39 6 28 -3 213 -13 413 -22 354 -16 363 -16 377 2 8 10 28 38 45 62
l31 42 -575 0 c-317 0 -576 -4 -576 -8z m-540 -116 c0 -3 -4 -8 -10 -11 -5 -3
-10 -1 -10 4 0 6 5 11 10 11 6 0 10 -2 10 -4z m290 -301 c0 -5 -5 -3 -10 5 -5
8 -10 20 -10 25 0 6 5 3 10 -5 5 -8 10 -19 10 -25z"/>
<path d="M1585 1951 c-62 -6 -64 -14 -7 -26 l34 -7 -51 -34 -50 -34 21 -58
c12 -31 23 -59 25 -61 2 -3 26 17 53 44 38 37 48 54 46 74 -2 14 -1 18 1 9 6
-26 23 -22 62 15 25 22 29 24 12 5 l-23 -27 36 -7 c25 -4 41 -15 50 -33 l14
-26 12 29 c21 57 18 69 -23 81 -24 7 -34 14 -28 20 30 30 -65 49 -184 36z m60
-51 c3 -6 -1 -7 -9 -4 -18 7 -21 14 -7 14 6 0 13 -4 16 -10z"/>
<path d="M1292 1274 c-48 -94 -52 -98 -95 -86 -41 12 -39 14 -51 -75 -7 -52 4
-55 27 -8 9 19 24 35 32 35 12 0 5 -16 -25 -59 -51 -73 -50 -99 3 -117 40 -14
46 -10 22 17 -15 15 -13 21 16 70 39 67 36 64 54 49 14 -12 12 -17 -15 -45
-16 -17 -30 -34 -30 -38 0 -6 103 54 120 70 3 3 -10 18 -29 33 l-33 29 48 61
48 61 -31 31 -31 31 -30 -59z"/>
<path d="M1650 1300 l-22 -31 26 -40 c43 -64 49 -89 30 -110 -10 -11 -26 -19
-37 -19 -13 0 -17 -5 -13 -16 3 -9 6 -20 6 -26 0 -6 6 -8 14 -5 8 3 29 2 47
-3 39 -12 50 -5 23 15 -14 10 -17 18 -9 30 14 22 29 20 33 -5 2 -11 7 -20 12
-20 5 0 17 -14 25 -30 15 -29 15 -32 -5 -57 -25 -32 -21 -37 15 -23 16 6 34 9
42 6 21 -8 16 54 -7 92 -11 18 -20 38 -20 44 0 6 -8 17 -17 24 -16 12 -16 15
-3 24 24 16 29 12 36 -25 9 -52 24 -53 24 -1 0 25 5 48 10 51 16 10 12 19 -14
31 -18 8 -25 8 -33 -4 -19 -31 -56 -6 -92 63 -18 36 -37 65 -41 65 -5 0 -18
-14 -30 -30z"/>
</g>
</svg>
